<?xml version="1.0"?><svg width="640" height="480" xmlns="http://www.w3.org/2000/svg">
 <title/>
 <metadata id="metadata4870">image/svg+xml</metadata>
 <g>
  <path fill="#ff5656" stroke-width="4.915275" id="path4671-6" d="m143.939896,268.394836l0,0.030945c-24.371979,-1.103943 -44.631989,19.434998 -42.687988,41.282043l0.187988,2.187012l2.187012,0.062988c25.454987,0.717957 52.147003,0.130981 77.968994,0.342957l2.25,0l0.218994,-2.217957c2.166016,-20.949036 -16.688995,-41.467041 -40.125,-41.687988l0,0zm-0.155975,4.937988l0.061981,0l0.031006,0c19.703003,0.184998 35.548004,17.088989 35.25,34.031006c-24.303009,-0.153015 -49.135986,0.309998 -72.875,-0.281006c-0.131012,-17.775024 16.872986,-34.734009 37.532013,-33.75l0,0z"/>
  <path fill="#ff5656" id="path4661-8" d="m98.174118,302.678589l16.5625,62.03125l55.15625,0l16.5625,-62.03125l-11.03125,4.78125l-11.03125,-4.78125l-11.03125,4.78125l-11.03125,-4.78125l-11.0625,4.78125l-11.03125,-4.78125l-11.03125,4.78125l-11.03125,-4.78125zm22.0625,9.53125l5.53125,0l0,47.75l-5.53125,-47.75zm22.09375,0l5.5,0l-5.5,47.75l0,-47.75zm22.0625,0l5.5,0l-11.03125,47.75l5.53125,-47.75z"/>
  <path fill="#7f0000" fill-rule="nonzero" stroke-width="1.799" d="m151.256439,272.669525c0.504318,-3.929688 -2.769501,-7.469025 -7.312347,-7.905304c-4.542847,-0.43631 -8.634399,2.395691 -9.138718,6.325439c-0.067093,0.522949 -0.067429,1.050812 -0.000778,1.573822" id="path4673-2"/>
  <path fill="#13b2af" id="path4661-0-5-6" d="m0,301.897339l16.5625,62.0625l55.15625,0l16.562485,-62.0625l-11.031235,4.78125l-11.03125,-4.78125l-11.03125,4.78125l-11.0625,-4.78125l-11.03125,4.78125l-11.03125,-4.78125l-11.03125,4.78125l-11.03125,-4.78125zm22.0625,9.5625l5.53125,0l0,47.71875l-5.53125,-47.71875zm22.0625,0l5.53125,0l-5.53125,47.71875l0,-47.71875zm22.09375,0l5.5,0l-11.03125,47.71875l5.53125,-47.71875z"/>
  <path fill="#092c70" stroke-width="15.53125" id="path4829-8" d="m197.400497,0.000732a6.93034,6.93034 0 0 0-6.84375,7.03125l0,2.21875l-13.0625,0a7.7664,7.7664 0 0 0-7.75,7.78125c0,0 -0.076691,10.693237 2.71875,21.875c1.397705,5.590881 3.443512,11.455902 7.25,16.53125c2.421417,3.228577 5.876556,6.128021 10.03125,7.8125l0,126l-92.25,0c-3.672455,0.018799 -7.118042,2.992157 -7.65625,6.625c-0.538208,3.632843 1.897003,7.479767 5.40625,8.5625c0,0 16.701965,5.068451 37.6875,10.125c18.179779,4.380493 39.418762,8.854492 56.8125,9.96875l0,144.71875l-172.25,0c-3.875397,-0.035095 -7.491943,3.262756 -7.8125,7.125c-0.320557,3.862244 2.703094,7.708252 6.53125,8.3125c0,0 108.956207,18.359985 172.78125,19.96875c-1.097626,7.155334 -3.833282,18.587402 -10.78125,31.09375c-11.551239,20.792236 -34.202515,44.046753 -82.25,53.65625c-3.723572,0.762146 -6.532928,4.592957 -6.15625,8.375c0.376678,3.782043 3.886749,6.987183 7.6875,7l200.000015,0c3.80072,-0.012817 7.310791,-3.217957 7.6875,-7c0.376678,-3.782043 -2.432678,-7.612854 -6.15625,-8.375c-48.047501,-9.609497 -70.698776,-32.864014 -82.250015,-53.65625c-6.947968,-12.506348 -9.683624,-23.938416 -10.78125,-31.09375c63.825027,-1.608765 172.781204,-19.96875 172.781204,-19.96875c3.828217,-0.604248 6.851807,-4.450256 6.53125,-8.3125c-0.320557,-3.862244 -3.937073,-7.160095 -7.8125,-7.125l-172.249954,0l0,-144.71875c17.393738,-1.114258 38.632721,-5.588257 56.812515,-9.96875c20.985535,-5.056549 37.6875,-10.125 37.6875,-10.125c3.509216,-1.082733 5.944458,-4.929657 5.40625,-8.5625c-0.538239,-3.632843 -3.983826,-6.606232 -7.65625,-6.625l-92.250015,0l0,-126c4.154694,-1.684479 7.609833,-4.583923 10.03125,-7.8125c3.806488,-5.075348 5.852264,-10.940369 7.25,-16.53125c2.795441,-11.181763 2.71875,-21.875 2.71875,-21.875a7.7664,7.7664 0 0 0-7.75,-7.78125l-13.0625,0l0,-2.21875a6.93034,6.93034 0 0 0-7.03125,-7.03125zm-11.59375,24.78125l23.375,0c-0.326202,3.121063 -0.806274,6.693787 -1.71875,10.34375c-1.102295,4.409119 -2.806488,8.544067 -4.625,10.96875c-1.58197,2.109283 -2.635132,2.945282 -4.46875,3.125a7.7664,7.7664 0 0 0-1,-0.0625a7.7664,7.7664 0 0 0-0.78125,0.0625c-1.813904,-0.186188 -2.864746,-1.027985 -4.4375,-3.125c-1.818512,-2.424683 -3.522736,-6.559631 -4.625,-10.96875c-0.912476,-3.649963 -1.392548,-7.222687 -1.71875,-10.34375z"/>
  <path fill="#13b2af" stroke-width="4.915275" id="path4671-6-1" d="m45.546906,266.795837l0,0.030945c-24.371994,-1.104004 -44.632004,19.434998 -42.688004,41.281006l0.188004,2.188049l2.186996,0.061951c25.455002,0.718994 52.147003,0.132019 77.968994,0.343994l2.25,0l0.219025,-2.218994c2.165985,-20.947998 -16.689011,-41.466003 -40.125015,-41.686951l0,0zm-0.156006,4.937988l0.062012,0l0.030991,0c19.703003,0.184998 35.548004,17.088989 35.25,34.031006c-24.304001,-0.153015 -49.136002,0.309998 -72.875,-0.281006c-0.130997,-17.775024 16.873001,-34.734009 37.531998,-33.75l0,0z"/>
  <path fill="#7f0000" fill-rule="nonzero" stroke-width="1.799" d="m52.863369,271.070465c0.504326,-3.929718 -2.769497,-7.469055 -7.312344,-7.905304c-4.542843,-0.43631 -8.634403,2.395691 -9.138725,6.325439c-0.067081,0.522949 -0.067421,1.050781 -0.000774,1.573792" id="path4673-2-7"/>
  <path fill="#007fff" stroke-width="4.915275" id="path4671-6-4" d="m353.568909,268.546814l0,0.031982c-24.372009,-1.104004 -44.632019,19.434021 -42.687012,41.281006l0.187012,2.187012l2.188019,0.062988c25.454987,0.718994 52.146942,0.132019 77.968964,0.343994l2.25,0l0.218048,-2.218994c2.165924,-20.948975 -16.689056,-41.466003 -40.125031,-41.687988l0,0zm-0.156006,4.937988l0.062988,0l0.031006,0c19.701996,0.186035 35.547028,17.090027 35.25,34.031006c-24.304016,-0.151978 -49.137024,0.310974 -72.875,-0.281006c-0.131012,-17.773987 16.872009,-34.734009 37.531006,-33.75l0,0z"/>
  <path fill="#007fff" id="path4661-8-0" d="m307.803589,302.830933l16.5625,62.03125l55.15625,0l16.562531,-62.03125l-11.031281,4.78125l-11.031219,-4.78125l-11.03125,4.78125l-11.03125,-4.78125l-11.0625,4.78125l-11.031311,-4.78125l-11.031219,4.78125l-11.03125,-4.78125zm22.062469,9.53125l5.531281,0l0,47.75l-5.531281,-47.75zm22.093811,0l5.5,0l-5.5,47.75l0,-47.75zm22.0625,0l5.499969,0l-11.03125,47.75l5.531281,-47.75z"/>
  <path fill="#7f0000" fill-rule="nonzero" stroke-width="1.799" d="m360.885895,272.82193c0.504333,-3.929688 -2.769501,-7.469025 -7.312347,-7.905304c-4.542847,-0.43631 -8.634399,2.395691 -9.138733,6.325439c-0.067078,0.522949 -0.067413,1.050812 -0.000763,1.573822" id="path4673-2-9"/>
  <path fill="#6dcc0e" id="path4661-0-5-6-4" d="m209.629471,302.049683l16.5625,62.0625l55.156235,0l16.5625,-62.0625l-11.03125,4.78125l-11.03125,-4.78125l-11.03125,4.78125l-11.062485,-4.78125l-11.03125,4.78125l-11.03125,-4.78125l-11.03125,4.78125l-11.03125,-4.78125zm22.0625,9.5625l5.53125,0l0,47.71875l-5.53125,-47.71875zm22.0625,0l5.531235,0l-5.531235,47.71875l0,-47.71875zm22.093735,0l5.5,0l-11.031219,47.71875l5.531219,-47.71875z"/>
  <path fill="#6dcc0e" stroke-width="4.915275" id="path4671-6-1-8" d="m255.175919,266.947815l0,0.031982c-24.372009,-1.10498 -44.632019,19.434021 -42.687012,41.281006l0.187012,2.187012l2.187988,0.062988c25.45401,0.718994 52.147018,0.132019 77.968979,0.343994l2.25,0l0.218018,-2.218994c2.166016,-20.948975 -16.688995,-41.46698 -40.124985,-41.687988l0,0zm-0.156006,4.937988l0.062988,0l0.031006,0c19.702011,0.186035 35.546982,17.088989 35.249985,34.031006c-24.303955,-0.151978 -49.136978,0.310974 -72.874985,-0.281006c-0.131012,-17.773987 16.872009,-34.734009 37.531006,-33.75l0,0z"/>
  <path fill="#7f0000" fill-rule="nonzero" stroke-width="1.799" d="m262.492828,271.222839c0.504333,-3.929688 -2.769501,-7.469025 -7.312347,-7.905273c-4.542831,-0.43634 -8.634399,2.39566 -9.138718,6.325439c-0.067093,0.522949 -0.067429,1.050781 -0.000778,1.573792" id="path4673-2-7-8"/>
  <path fill="#7f00ff" stroke-width="4.915275" id="path4671-6-2" d="m271.42691,89.26181l0,0.031006c-24.373001,-1.104004 -44.632004,19.434998 -42.688004,41.281006l0.187988,2.187988l2.187012,0.062012c25.455002,0.718994 52.147018,0.131989 77.968979,0.343994l2.250031,0l0.218994,-2.218994c2.164978,-20.949005 -16.690002,-41.466003 -40.125,-41.687012l0,0zm-0.157013,4.937012l0.063019,0l0.030975,0c19.702026,0.185974 35.548035,17.089996 35.25,34.031982c-24.303955,-0.152985 -49.136963,0.309998 -72.874985,-0.281982c-0.131012,-17.774017 16.872986,-34.733002 37.530991,-33.75l0,0z"/>
  <path fill="#7f00ff" id="path4661-8-4" d="m225.660721,123.545258l16.5625,62.03125l55.156265,0l16.562469,-62.03125l-11.03125,4.78125l-11.03125,-4.78125l-11.03125,4.78125l-11.03125,-4.78125l-11.0625,4.78125l-11.031235,-4.78125l-11.03125,4.78125l-11.03125,-4.78125zm22.0625,9.53125l5.53125,0l0,47.75l-5.53125,-47.75zm22.093735,0l5.500031,0l-5.500031,47.75l0,-47.75zm22.0625,0l5.500031,0l-11.031281,47.75l5.53125,-47.75z"/>
  <path fill="#7f0000" fill-rule="nonzero" stroke-width="1.799" d="m278.743042,93.536217c0.504333,-3.929695 -2.769501,-7.46904 -7.312347,-7.905296c-4.542847,-0.436317 -8.634399,2.395683 -9.138733,6.325439c-0.067078,0.522949 -0.067413,1.050789 -0.000763,1.573799" id="path4673-2-5"/>
  <path fill="#ff00ff" id="path4661-0-5-6-5" d="m78.915161,123.478271l16.562485,62.0625l55.15625,0l16.5625,-62.0625l-11.03125,4.78125l-11.03125,-4.78125l-11.03125,4.78125l-11.0625,-4.78125l-11.03125,4.78125l-11.03125,-4.78125l-11.03125,4.78125l-11.031235,-4.78125zm22.062485,9.5625l5.53125,0l0,47.71875l-5.53125,-47.71875zm22.0625,0l5.53125,0l-5.53125,47.71875l0,-47.71875zm22.09375,0l5.5,0l-11.03125,47.71875l5.53125,-47.71875z"/>
  <path fill="#ff00ff" stroke-width="4.915275" id="path4671-6-1-1" d="m124.461899,88.376801l0,0.031006c-24.371979,-1.104004 -44.631989,19.434998 -42.686981,41.281006l0.186981,2.187988l2.188019,0.062012c25.453979,0.718994 52.145996,0.131989 77.967987,0.343994l2.25,0l0.218994,-2.218994c2.166016,-20.947998 -16.688995,-41.466003 -40.125,-41.687012l0,0zm-0.156006,4.937012l0.062012,0l0.031006,0c19.703003,0.186005 35.548004,17.089996 35.25,34.031982c-24.303009,-0.152985 -49.136017,0.310028 -72.875,-0.281982c-0.130005,-17.774017 16.872986,-34.733002 37.531982,-33.75l0,0z"/>
  <path fill="#7f0000" fill-rule="nonzero" stroke-width="1.799" d="m131.778534,92.651421c0.504333,-3.929695 -2.769485,-7.46904 -7.31234,-7.905296c-4.542839,-0.436317 -8.634399,2.395683 -9.138725,6.325432c-0.067078,0.522949 -0.067421,1.050797 -0.000771,1.573799" id="path4673-2-7-7"/>
  <title>Layer 1</title>
 </g>
</svg>